<svg width="16" height="17" viewBox="0 0 16 17" fill="none" xmlns="http://www.w3.org/2000/svg">
<path d="M7.99992 15.8236C4.04659 15.8236 0.833252 12.6102 0.833252 8.6569C0.833252 4.70357 4.04659 1.49023 7.99992 1.49023C11.9533 1.49023 15.1666 4.70357 15.1666 8.6569C15.1666 12.6102 11.9533 15.8236 7.99992 15.8236ZM7.99992 2.49023C4.59992 2.49023 1.83325 5.2569 1.83325 8.6569C1.83325 12.0569 4.59992 14.8236 7.99992 14.8236C11.3999 14.8236 14.1666 12.0569 14.1666 8.6569C14.1666 5.2569 11.3999 2.49023 7.99992 2.49023Z" fill="#B2BAC7"/>
<path d="M6.11332 11.0432C5.98666 11.0432 5.85999 10.9965 5.75999 10.8965C5.56666 10.7032 5.56666 10.3832 5.75999 10.1898L9.53332 6.41648C9.72666 6.22315 10.0467 6.22315 10.24 6.41648C10.4333 6.60982 10.4333 6.92982 10.24 7.12315L6.46666 10.8965C6.37332 10.9965 6.23999 11.0432 6.11332 11.0432Z" fill="#B2BAC7"/>
<path d="M9.88666 11.0432C9.75999 11.0432 9.63332 10.9965 9.53332 10.8965L5.75999 7.12315C5.56666 6.92982 5.56666 6.60982 5.75999 6.41648C5.95332 6.22315 6.27332 6.22315 6.46666 6.41648L10.24 10.1898C10.4333 10.3832 10.4333 10.7032 10.24 10.8965C10.14 10.9965 10.0133 11.0432 9.88666 11.0432Z" fill="#B2BAC7"/>
</svg>
