<svg width="16" height="16" viewBox="0 0 16 16" fill="none" xmlns="http://www.w3.org/2000/svg">
<path d="M7.99995 10.8866C6.40661 10.8866 5.11328 9.59328 5.11328 7.99995C5.11328 6.40661 6.40661 5.11328 7.99995 5.11328C9.59328 5.11328 10.8866 6.40661 10.8866 7.99995C10.8866 9.59328 9.59328 10.8866 7.99995 10.8866ZM7.99995 6.11328C6.95995 6.11328 6.11328 6.95995 6.11328 7.99995C6.11328 9.03995 6.95995 9.88661 7.99995 9.88661C9.03995 9.88661 9.88661 9.03995 9.88661 7.99995C9.88661 6.95995 9.03995 6.11328 7.99995 6.11328Z" fill="#B2BAC7"/>
<path d="M7.99997 14.0149C5.4933 14.0149 3.12664 12.5483 1.49997 10.0016C0.793304 8.90162 0.793304 7.10828 1.49997 6.00161C3.1333 3.45495 5.49997 1.98828 7.99997 1.98828C10.5 1.98828 12.8666 3.45495 14.4933 6.00161C15.2 7.10161 15.2 8.89495 14.4933 10.0016C12.8666 12.5483 10.5 14.0149 7.99997 14.0149ZM7.99997 2.98828C5.84664 2.98828 3.78664 4.28161 2.34664 6.54162C1.84664 7.32162 1.84664 8.68161 2.34664 9.46161C3.78664 11.7216 5.84664 13.0149 7.99997 13.0149C10.1533 13.0149 12.2133 11.7216 13.6533 9.46161C14.1533 8.68161 14.1533 7.32162 13.6533 6.54162C12.2133 4.28161 10.1533 2.98828 7.99997 2.98828Z" fill="#B2BAC7"/>
</svg>
